<?xml version="1.0" encoding="UTF-8"?>
<svg version="1.1" xmlns="http://www.w3.org/2000/svg" width="793" height="610">
<path d="M0 0 C0.94017408 -0.0048856 1.88034817 -0.00977119 2.84901237 -0.01480484 C5.99667721 -0.02933012 9.14430016 -0.03603532 12.29199219 -0.04199219 C14.50096668 -0.04894059 16.70994088 -0.05598158 18.91891479 -0.06311035 C26.05890072 -0.08271758 33.19885737 -0.08729409 40.33886719 -0.08886719 C42.1497797 -0.0897509 42.1497797 -0.0897509 43.99727631 -0.09065247 C78.19621825 -0.10249942 112.22445589 0.06707762 146.32269287 2.93328857 C149.17439599 3.16817765 152.02695296 3.38612425 154.88037109 3.59912109 C251.45210768 10.8110754 347.56555146 25.43818565 470.08886719 56.16113281 C471.18547668 56.46206848 472.28208618 56.76300415 473.41192627 57.07305908 C481.9153582 59.41108785 490.41042559 61.77817494 498.90136719 64.16113281 C500.07308472 64.48886688 501.24480225 64.81660095 502.45202637 65.15426636 C505.77703303 66.08698399 509.09935878 67.0286523 512.42089844 67.97363281 C513.41255508 68.25130997 514.40421173 68.52898712 515.42591858 68.81507874 C528.44448915 72.55043638 528.44448915 72.55043638 532.17480469 77.87207031 C532.96951172 78.98098633 532.96951172 78.98098633 533.78027344 80.11230469 C534.33585938 80.91216797 534.89144531 81.71203125 535.46386719 82.53613281 C536.69901229 84.26400784 537.93606328 85.99052171 539.17480469 87.71582031 C539.81514648 88.61268555 540.45548828 89.50955078 541.11523438 90.43359375 C544.35347507 94.90880714 547.72295814 99.28162152 551.08886719 103.66113281 C556.74400442 111.04630004 562.30359474 118.49311244 567.79980469 125.99707031 C572.8191844 132.83342006 577.95965039 139.57331526 583.11474609 146.30761719 C588.23005268 153.00230415 593.24244243 159.7671434 598.22387695 166.56176758 C602.20218442 171.98031008 606.26410947 177.32116354 610.37792969 182.63769531 C613.91770179 187.22548013 617.41227704 191.84724524 620.90136719 196.47363281 C621.5361499 197.31015381 622.17093262 198.1466748 622.82495117 199.00854492 C633.08886719 212.64987438 633.08886719 212.64987438 633.08886719 217.16113281 C633.6939209 217.26586914 634.29897461 217.37060547 634.92236328 217.47851562 C638.60018702 218.63731607 640.45582184 221.94585748 642.71386719 224.91113281 C643.24383301 225.59071045 643.77379883 226.27028809 644.31982422 226.97045898 C645.91949078 229.02652216 647.50539545 231.09258347 649.08886719 233.16113281 C649.92685533 234.24619594 650.76535171 235.33086686 651.60449219 236.41503906 C653.20625212 238.49149275 654.80421438 240.57037595 656.39746094 242.65332031 C665.08854769 254.00212097 673.91963505 265.24463494 682.76220703 276.47558594 C684.57849842 278.78321857 686.39272728 281.09246839 688.20678711 283.40185547 C689.12729285 284.57358562 690.04802812 285.74513549 690.96899414 286.91650391 C693.23960789 289.80476644 695.507267 292.69524887 697.76855469 295.59082031 C703.18896117 302.52389837 708.68974318 309.38423445 714.25463867 316.2019043 C717.72757962 320.46384648 721.14668454 324.762495 724.52636719 329.09863281 C732.27747561 339.02546597 740.29758073 348.74240834 748.47851562 358.31762695 C752.68135838 363.24080618 756.82025558 368.21103816 760.83886719 373.28613281 C761.28198242 373.83108398 761.72509766 374.37603516 762.18164062 374.9375 C763.38574219 376.48144531 763.38574219 376.48144531 765.08886719 379.16113281 C763.77813049 383.09334292 762.32099531 383.45719453 758.74511719 385.46191406 C757.04778442 386.42230591 757.04778442 386.42230591 755.31616211 387.40209961 C754.07383515 388.092799 752.83140075 388.78330516 751.58886719 389.47363281 C750.31278045 390.19133565 749.03715068 390.90985154 747.76196289 391.62915039 C744.49989345 393.46633548 741.23192499 395.29273075 737.9619751 397.11584473 C735.13027199 398.69607697 732.30305655 400.28428054 729.47558594 401.87207031 C725.35224154 404.18599833 721.22556941 406.49383481 717.09667969 408.79785156 C712.21389464 411.52563367 707.34844938 414.2827166 702.48730469 417.04882812 C690.20889461 424.02942559 677.80205086 430.75201239 665.34765625 437.41259766 C662.19072178 439.10648173 659.04094715 440.81287582 655.89355469 442.52441406 C638.51283085 451.96501813 620.95960607 461.05191277 603.3314209 470.02001953 C601.11227653 471.14922108 598.89401664 472.28014693 596.67578125 473.41113281 C549.59809694 497.38638456 504.13655742 516.72879309 451.02636719 521.84863281 C449.79869629 521.96811279 448.57102539 522.08759277 447.30615234 522.21069336 C426.76117884 524.05666658 406.15269262 524.32238344 385.53808594 524.32910156 C383.14191164 524.33233308 380.74573753 524.33569838 378.3495636 524.33918762 C373.35356186 524.34512294 368.35757727 524.34703364 363.36157227 524.34643555 C358.33874877 524.3463548 353.31601748 524.35322434 348.29321289 524.36694336 C307.22722249 524.4771749 266.44310906 523.48365727 225.52636719 519.84863281 C224.29256317 519.74130829 223.05875916 519.63398376 221.78756714 519.52340698 C72.98759478 506.5502365 72.98759478 506.5502365 52.52246094 485.52441406 C13.27961986 425.54660804 7.43735544 341.57358075 0.08886719 272.16113281 C-0.00932312 271.23463928 -0.10751343 270.30814575 -0.2086792 269.35357666 C-2.67728331 245.86920935 -4.39700277 222.33406066 -5.90828705 198.77080917 C-6.03073414 196.86994174 -6.1554813 194.96922288 -6.28033447 193.06851196 C-9.2485604 147.40229096 -10.23668661 101.73790911 -10.10675049 55.98327637 C-10.09565608 51.01581657 -10.09628994 46.04838266 -10.09688854 41.08091259 C-10.09661849 36.26765664 -10.09117234 31.45441862 -10.0838871 26.64116859 C-10.08071329 24.36167853 -10.07873605 22.08218647 -10.07799339 19.80269432 C-10.07584495 16.67628739 -10.067149 13.54997155 -10.05639648 10.42358398 C-10.05684967 9.49278519 -10.05730286 8.56198639 -10.05776978 7.60298157 C-10.01346367 -1.1281983 -7.94999301 0.0098504 0 0 Z " fill="#FD0056" transform="translate(21.9111328125,50.8388671875)"/>
<path d="M0 0 C5.15057165 0.07246684 9.90327688 1.25558872 14.8737793 2.52368164 C15.87382492 2.77167007 16.87387054 3.01965851 17.90422058 3.27516174 C21.19510536 4.09576562 24.48182432 4.93174127 27.76831055 5.76977539 C28.89609924 6.05439636 30.02388794 6.33901733 31.18585205 6.63226318 C49.51764546 11.2619985 67.75832321 16.20147566 85.95581055 21.33227539 C87.10640961 21.65519562 88.25700867 21.97811584 89.44247437 22.31082153 C92.70693539 23.22969362 95.96857318 24.15787998 99.22924805 25.09008789 C100.19259567 25.36148087 101.1559433 25.63287384 102.14848328 25.91249084 C114.94680379 29.61137453 114.94680379 29.61137453 118.66674805 34.91821289 C119.19655273 35.65749023 119.72635742 36.39676758 120.2722168 37.15844727 C120.82780273 37.95831055 121.38338867 38.75817383 121.95581055 39.58227539 C123.19095565 41.31015042 124.42800664 43.03666429 125.66674805 44.76196289 C126.30708984 45.65882813 126.94743164 46.55569336 127.60717773 47.47973633 C130.84541843 51.95494971 134.2149015 56.3277641 137.58081055 60.70727539 C143.23594778 68.09244262 148.7955381 75.53925502 154.29174805 83.04321289 C159.31112776 89.87956264 164.45159375 96.61945784 169.60668945 103.35375977 C174.72199604 110.04844673 179.73438579 116.81328598 184.71582031 123.60791016 C188.69412778 129.02645266 192.75605283 134.36730612 196.86987305 139.68383789 C200.40964515 144.27162271 203.9042204 148.89338782 207.39331055 153.51977539 C208.02809326 154.35629639 208.66287598 155.19281738 209.31689453 156.0546875 C211.09744662 158.42114272 212.84647733 160.80679474 214.58081055 163.20727539 C215.09562988 163.90127441 215.61044922 164.59527344 216.14086914 165.31030273 C220.8222175 172.05835532 219.91184033 177.52466569 218.62768555 185.29711914 C218.20417425 187.58131665 217.77149325 189.86382847 217.33081055 192.14477539 C217.10264648 193.34610107 216.87448242 194.54742676 216.6394043 195.78515625 C213.81756778 210.44707987 210.25881803 224.79819063 206.16577148 239.15258789 C205.64501069 240.98177105 205.13190156 242.81312869 204.61987305 244.64477539 C203.81853673 247.4939712 203.00190618 250.33806707 202.17163086 253.17895508 C201.75074407 254.62388378 201.33385468 256.0699794 200.91967773 257.5168457 C185.45984229 311.30201071 163.29926633 367.29896536 126.58081055 410.20727539 C125.58685361 411.38656914 124.59339307 412.5662814 123.6003418 413.74633789 C112.89294264 426.42241446 101.54255621 437.13320325 87.58081055 446.20727539 C83.4998618 444.59047947 80.77394084 441.66502165 77.76831055 438.58227539 C77.23133545 438.03667969 76.69436035 437.49108398 76.14111328 436.92895508 C72.12121614 432.8185115 68.25372948 428.63247893 64.58081055 424.20727539 C64.14220703 423.6877832 63.70360352 423.16829102 63.25170898 422.63305664 C12.36824539 362.25267941 -18.20709495 287.23737849 -29.79418945 209.58227539 C-29.9336499 208.66184448 -30.07311035 207.74141357 -30.21679688 206.79309082 C-30.61452043 204.14864223 -30.99953514 201.50267551 -31.38012695 198.85571289 C-31.50064423 198.05767242 -31.6211615 197.25963196 -31.74533081 196.43740845 C-32.30213778 192.44779213 -32.54261126 189.10381103 -31.41918945 185.20727539 C-30.37299438 184.87687256 -30.37299438 184.87687256 -29.30566406 184.53979492 C-12.88416708 179.31361287 2.95179024 173.48231199 18.58081055 166.20727539 C19.59916992 165.73386719 20.6175293 165.26045898 21.66674805 164.77270508 C36.18332579 157.98486086 50.45260114 150.76815416 64.58081055 143.20727539 C56.84601776 137.63232685 48.48781653 133.33802853 40.01831055 129.01977539 C39.28849976 128.64632996 38.55868896 128.27288452 37.8067627 127.88812256 C18.5206315 118.03052123 -0.91966508 109.14285142 -21.24243164 101.64526367 C-22.42353516 101.20939941 -23.60463867 100.77353516 -24.8215332 100.32446289 C-26.40695923 99.74607666 -26.40695923 99.74607666 -28.02441406 99.15600586 C-30.41918945 98.20727539 -30.41918945 98.20727539 -31.41918945 97.20727539 C-31.99191049 89.18918083 -30.45677951 81.53417625 -28.91088867 73.70581055 C-28.57647349 72.00650323 -28.25027677 70.30556236 -27.93139648 68.60327148 C-15.17412379 0.91987369 -15.17412379 0.91987369 0 0 Z " fill="#1FF6CE" transform="translate(435.419189453125,93.792724609375)"/>
<path d="M0 0 C-0.639375 0.226875 -1.27875 0.45375 -1.9375 0.6875 C-4.27193661 1.85250896 -4.27193661 1.85250896 -4.75 4.625 C-4.8325 5.40875 -4.915 6.1925 -5 7 C-5.66 6.34 -6.32 5.68 -7 5 C-6.625 2.375 -6.625 2.375 -6 0 C-2.25 -1.125 -2.25 -1.125 0 0 Z " fill="#46CFBB" transform="translate(410,279)"/>
</svg>
