<?xml version="1.0" encoding="UTF-8"?>
<svg version="1.1" xmlns="http://www.w3.org/2000/svg" width="782" height="575">
<path d="M0 0 C0.94017408 -0.0048856 1.88034817 -0.00977119 2.84901237 -0.01480484 C5.99667721 -0.02933012 9.14430016 -0.03603532 12.29199219 -0.04199219 C14.50096668 -0.04894059 16.70994088 -0.05598158 18.91891479 -0.06311035 C26.05890072 -0.08271758 33.19885737 -0.08729409 40.33886719 -0.08886719 C42.1497797 -0.0897509 42.1497797 -0.0897509 43.99727631 -0.09065247 C78.19621825 -0.10249942 112.22445589 0.06707762 146.32269287 2.93328857 C149.17439599 3.16817765 152.02695296 3.38612425 154.88037109 3.59912109 C251.45210768 10.8110754 347.56555146 25.43818565 470.08886719 56.16113281 C471.18547668 56.46206848 472.28208618 56.76300415 473.41192627 57.07305908 C481.9153582 59.41108785 490.41042559 61.77817494 498.90136719 64.16113281 C500.07308472 64.48886688 501.24480225 64.81660095 502.45202637 65.15426636 C505.77703303 66.08698399 509.09935878 67.0286523 512.42089844 67.97363281 C513.41255508 68.25130997 514.40421173 68.52898712 515.42591858 68.81507874 C528.44448915 72.55043638 528.44448915 72.55043638 532.17480469 77.87207031 C532.96951172 78.98098633 532.96951172 78.98098633 533.78027344 80.11230469 C534.33585938 80.91216797 534.89144531 81.71203125 535.46386719 82.53613281 C536.69901229 84.26400784 537.93606328 85.99052171 539.17480469 87.71582031 C539.81514648 88.61268555 540.45548828 89.50955078 541.11523438 90.43359375 C544.35347507 94.90880714 547.72295814 99.28162152 551.08886719 103.66113281 C556.74400442 111.04630004 562.30359474 118.49311244 567.79980469 125.99707031 C572.8191844 132.83342006 577.95965039 139.57331526 583.11474609 146.30761719 C588.23005268 153.00230415 593.24244243 159.7671434 598.22387695 166.56176758 C602.20218442 171.98031008 606.26410947 177.32116354 610.37792969 182.63769531 C613.91770179 187.22548013 617.41227704 191.84724524 620.90136719 196.47363281 C621.5361499 197.31015381 622.17093262 198.1466748 622.82495117 199.00854492 C633.08886719 212.64987438 633.08886719 212.64987438 633.08886719 217.16113281 C633.6939209 217.26586914 634.29897461 217.37060547 634.92236328 217.47851562 C638.60018702 218.63731607 640.45582184 221.94585748 642.71386719 224.91113281 C643.24383301 225.59071045 643.77379883 226.27028809 644.31982422 226.97045898 C645.91949078 229.02652216 647.50539545 231.09258347 649.08886719 233.16113281 C649.92685533 234.24619594 650.76535171 235.33086686 651.60449219 236.41503906 C653.20625212 238.49149275 654.80421438 240.57037595 656.39746094 242.65332031 C665.08854769 254.00212097 673.91963505 265.24463494 682.76220703 276.47558594 C684.57849842 278.78321857 686.39272728 281.09246839 688.20678711 283.40185547 C689.12729285 284.57358562 690.04802812 285.74513549 690.96899414 286.91650391 C693.23960789 289.80476644 695.507267 292.69524887 697.76855469 295.59082031 C703.18896117 302.52389837 708.68974318 309.38423445 714.25463867 316.2019043 C717.72757962 320.46384648 721.14668454 324.762495 724.52636719 329.09863281 C732.27747561 339.02546597 740.29758073 348.74240834 748.47851562 358.31762695 C752.68135838 363.24080618 756.82025558 368.21103816 760.83886719 373.28613281 C761.28198242 373.83108398 761.72509766 374.37603516 762.18164062 374.9375 C763.38574219 376.48144531 763.38574219 376.48144531 765.08886719 379.16113281 C763.77813049 383.09334292 762.32099531 383.45719453 758.74511719 385.46191406 C757.04778442 386.42230591 757.04778442 386.42230591 755.31616211 387.40209961 C754.07383515 388.092799 752.83140075 388.78330516 751.58886719 389.47363281 C750.31278045 390.19133565 749.03715068 390.90985154 747.76196289 391.62915039 C744.49989345 393.46633548 741.23192499 395.29273075 737.9619751 397.11584473 C735.13027199 398.69607697 732.30305655 400.28428054 729.47558594 401.87207031 C725.35224154 404.18599833 721.22556941 406.49383481 717.09667969 408.79785156 C712.21389464 411.52563367 707.34844938 414.2827166 702.48730469 417.04882812 C690.20889461 424.02942559 677.80205086 430.75201239 665.34765625 437.41259766 C662.19072178 439.10648173 659.04094715 440.81287582 655.89355469 442.52441406 C638.51283085 451.96501813 620.95960607 461.05191277 603.3314209 470.02001953 C601.11227653 471.14922108 598.89401664 472.28014693 596.67578125 473.41113281 C549.59809694 497.38638456 504.13655742 516.72879309 451.02636719 521.84863281 C449.79869629 521.96811279 448.57102539 522.08759277 447.30615234 522.21069336 C426.76117884 524.05666658 406.15269262 524.32238344 385.53808594 524.32910156 C383.14191164 524.33233308 380.74573753 524.33569838 378.3495636 524.33918762 C373.35356186 524.34512294 368.35757727 524.34703364 363.36157227 524.34643555 C358.33874877 524.3463548 353.31601748 524.35322434 348.29321289 524.36694336 C307.22722249 524.4771749 266.44310906 523.48365727 225.52636719 519.84863281 C224.29256317 519.74130829 223.05875916 519.63398376 221.78756714 519.52340698 C72.98759478 506.5502365 72.98759478 506.5502365 52.52246094 485.52441406 C13.27961986 425.54660804 7.43735544 341.57358075 0.08886719 272.16113281 C-0.00932312 271.23463928 -0.10751343 270.30814575 -0.2086792 269.35357666 C-2.67728331 245.86920935 -4.39700277 222.33406066 -5.90828705 198.77080917 C-6.03073414 196.86994174 -6.1554813 194.96922288 -6.28033447 193.06851196 C-9.2485604 147.40229096 -10.23668661 101.73790911 -10.10675049 55.98327637 C-10.09565608 51.01581657 -10.09628994 46.04838266 -10.09688854 41.08091259 C-10.09661849 36.26765664 -10.09117234 31.45441862 -10.0838871 26.64116859 C-10.08071329 24.36167853 -10.07873605 22.08218647 -10.07799339 19.80269432 C-10.07584495 16.67628739 -10.067149 13.54997155 -10.05639648 10.42358398 C-10.05684967 9.49278519 -10.05730286 8.56198639 -10.05776978 7.60298157 C-10.01346367 -1.1281983 -7.94999301 0.0098504 0 0 Z " fill="#0DFED8" transform="translate(15.9111328125,33.8388671875)"/>
<path d="M0 0 C6.2549479 0.65056189 12.19574294 1.89242764 18.29296875 3.4140625 C19.29301437 3.66063599 20.29306 3.90720947 21.32341003 4.16125488 C24.61312249 4.9759065 27.90051567 5.79941336 31.1875 6.625 C32.3152887 6.90712341 33.44307739 7.18924683 34.6050415 7.47991943 C52.94154676 12.07862512 71.18171181 16.99016621 89.375 22.125 C90.52559906 22.44801086 91.67619812 22.77102173 92.86166382 23.1038208 C96.12610742 24.02265869 99.38774963 24.95074465 102.6484375 25.8828125 C103.61178513 26.15420044 104.57513275 26.42558838 105.56767273 26.7052002 C118.36604315 30.40417034 118.36604315 30.40417034 122.0859375 35.7109375 C122.61574219 36.45021484 123.14554688 37.18949219 123.69140625 37.95117188 C124.24699219 38.75103516 124.80257812 39.55089844 125.375 40.375 C126.6101451 42.10287503 127.84719609 43.8293889 129.0859375 45.5546875 C129.7262793 46.45155273 130.36662109 47.34841797 131.02636719 48.27246094 C134.26460788 52.74767432 137.63409095 57.12048871 141 61.5 C146.65513724 68.88516723 152.21472756 76.33197963 157.7109375 83.8359375 C162.73031722 90.67228725 167.8707832 97.41218244 173.02587891 104.14648438 C178.14118549 110.84117134 183.15357524 117.60601059 188.13500977 124.40063477 C192.11331723 129.81917727 196.17524228 135.16003073 200.2890625 140.4765625 C203.8288346 145.06434732 207.32340986 149.68611243 210.8125 154.3125 C211.44728271 155.149021 212.08206543 155.98554199 212.73608398 156.84741211 C214.51663607 159.21386733 216.26566678 161.59951935 218 164 C218.51481934 164.69399902 219.02963867 165.38799805 219.56005859 166.10302734 C224.33633526 172.98791683 223.30185412 178.54721713 221.96875 186.47265625 C221.49031684 189.00473642 221.00003015 191.53459609 220.5 194.0625 C220.36784088 194.73650848 220.23568176 195.41051697 220.09951782 196.10494995 C215.25827791 220.66792165 208.38194492 244.66100257 201.02929688 268.57080078 C199.96496352 272.11672732 198.97252388 275.67825989 197.984375 279.24609375 C196.60040593 284.12285647 195.01484422 288.7872496 193.05859375 293.4609375 C191.85460647 296.34872987 190.73836064 299.26359443 189.625 302.1875 C168.82844191 356.33725361 140.82092569 413.96825773 91 447 C88.15094559 445.7040639 86.07840212 444.33419618 83.86328125 442.12890625 C83.29077637 441.56051025 82.71827148 440.99211426 82.12841797 440.40649414 C81.52916504 439.79797607 80.92991211 439.18945801 80.3125 438.5625 C79.68746582 437.93142334 79.06243164 437.30034668 78.41845703 436.65014648 C73.24698472 431.36851501 68.56003036 425.81660718 64 420 C63.09487251 418.89384493 62.18717496 417.78978943 61.27734375 416.6875 C13.36038665 358.34754321 -17.07876729 283.24394003 -26.59863281 208.57763672 C-26.94359943 205.89170063 -26.94359943 205.89170063 -28 203 C-28.22797562 200.26710707 -28.41668187 197.54957796 -28.5625 194.8125 C-28.60568359 194.06291016 -28.64886719 193.31332031 -28.69335938 192.54101562 C-28.79922685 190.69421625 -28.9000976 188.84713166 -29 187 C-23.94898709 184.91912255 -18.88807054 182.92608363 -13.71484375 181.16796875 C9.87094005 173.12876071 32.37348928 162.60011735 54.5 151.1875 C56.22742432 150.29865112 56.22742432 150.29865112 57.98974609 149.3918457 C63.3047126 147.06018892 63.3047126 147.06018892 67 143 C36.35129943 125.7051028 5.39951961 110.28428214 -28 99 C-28.58542885 66.50869857 -17.31191582 32.31052061 -2 4 C-1.32732256 2.66968903 -0.65740076 1.33792618 0 0 Z " fill="#FD0056" transform="translate(426,76)"/>
</svg>
